<svg id="Слой_1" data-name="Слой 1" xmlns="http://www.w3.org/2000/svg" viewBox="0 0 784.72 66.41"><defs><style>.cls-1{fill:#12235f;}.cls-2{fill:#b1132f;}</style></defs><title>Logo long</title><path class="cls-1" d="M2916.31,1057.4a1,1,0,0,0-1.12.9s-1.43,3.35-4,4.63c-1.15.59-1.64.9-4.25.82h-13.16c-7.12-.51-7.85-7.95-7.85-7.95,0-.91-.1-2.11-.1-2.63v-8.45c.2-7.61,6.1-9.36,6.1-9.36a11.08,11.08,0,0,1,2.79-.27h13.16c6,.2,7.55,6.71,7.55,6.71a1.27,1.27,0,0,0,1.11.82h23.9a.93.93,0,0,0,.92-.93v-2.56c-.35-17.69-16.44-22-19.77-21.89-.9,0-2.16-.07-2.66-.07h-37.17c-11.32,0-17.74,8.4-20,14.12a18.79,18.79,0,0,0-1.33,5.58c0,1-.13,2.69-.13,3.2v19.61c1,18.73,17.27,21.86,19.72,22,.82,0,2.19.08,2.7.08h37.17c17-.89,21.36-15.78,21.44-20.53,0-1.38.06-1.91.06-2.43v-.42a.93.93,0,0,0-.92-.94Z" transform="translate(-2677.33 -1017.11)"/><path class="cls-1" d="M2771.23,1018.86c.26-.45.05-.8-.46-.8h-92.51a.92.92,0,0,0-.93.92v17.8a.93.93,0,0,0,.93.93h22.69a.93.93,0,0,1,.92.93v41.22a.93.93,0,0,0,.93.93h35.71a.93.93,0,0,0,.93-.93v-41.22a.92.92,0,0,1,.92-.93h18.73a1.81,1.81,0,0,0,1.4-.8Z" transform="translate(-2677.33 -1017.11)"/><path class="cls-1" d="M2786.15,1018.06a2.34,2.34,0,0,0-1.54.68s-16.4,16.31-16.36,39c0,14,5.74,22.31,5.74,22.31a2.18,2.18,0,0,0,1.49.73h23.4c.51,0,.66-.32.33-.71a39.54,39.54,0,0,1-7.41-22.69,30.15,30.15,0,0,1,7-19.09,2.08,2.08,0,0,1,1.47-.74H2815a.92.92,0,0,1,.92.93v41.38a.93.93,0,0,0,.93.93h33.27a.93.93,0,0,0,.93-.93V1019a.93.93,0,0,0-.93-.92Z" transform="translate(-2677.33 -1017.11)"/><path class="cls-2" d="M2791.81,1057.38a36.8,36.8,0,0,0,.74,7.34h47.76l6.28-9.88h-54.67c-.07.82-.11,1.67-.11,2.54" transform="translate(-2677.33 -1017.11)"/><path class="cls-2" d="M2793.49,1047.56a30.07,30.07,0,0,0-1.45,6h55.34l3.84-6Z" transform="translate(-2677.33 -1017.11)"/><path class="cls-2" d="M2950.94,1068.46l23.77-18.14c6-4.54,8.16-7.62,8.16-11.43,0-4-2.81-6.44-7.08-6.44s-7.62,2.45-12.61,8.16l-11.88-9.89c6.8-8.8,13.52-13.61,25.85-13.61,13.88,0,23.4,8.25,23.4,20.41,0,10.16-5.17,15.51-14.7,22.22l-10.89,7.62h26.22v14.33h-50.26Z" transform="translate(-2677.33 -1017.11)"/><path class="cls-2" d="M3038,1069.36h-30.75l-2.9-12.43,32.93-39.19h17.78v38.46h8.07v13.15h-8.07v12.34H3038Zm0-13.06v-18.23l-15.15,18.23Z" transform="translate(-2677.33 -1017.11)"/><rect class="cls-1" x="3053.37" y="1048.35" width="63.6" height="1.25" transform="translate(1456.81 -3053.31) rotate(90)"/><path class="cls-1" d="M3112.87,1017.75h41.25v1.84h-39.41v27.74h24.44a28.4,28.4,0,0,1,9,1.29,16.88,16.88,0,0,1,6.29,3.63,14.56,14.56,0,0,1,3.67,5.51,19.54,19.54,0,0,1,1.19,6.94,20.16,20.16,0,0,1-1.19,6.89,16,16,0,0,1-3.67,5.83,18.06,18.06,0,0,1-6.25,4,23.53,23.53,0,0,1-8.82,1.52h-26.55Zm26.55,63.39a21.71,21.71,0,0,0,8.31-1.42,15.86,15.86,0,0,0,5.6-3.72,14.42,14.42,0,0,0,3.17-5.24,18.54,18.54,0,0,0,1-6.06,20.53,20.53,0,0,0-.83-5.83,11.78,11.78,0,0,0-2.94-5,14.9,14.9,0,0,0-5.65-3.45,26.54,26.54,0,0,0-9-1.29h-24.44v32Z" transform="translate(-2677.33 -1017.11)"/><path class="cls-1" d="M3180.94,1083v-65.22h1.84V1083Z" transform="translate(-2677.33 -1017.11)"/><path class="cls-1" d="M3207.22,1025.37a13.43,13.43,0,0,1,2.8-3,19.79,19.79,0,0,1,4.13-2.57,27.78,27.78,0,0,1,5.1-1.79,23.41,23.41,0,0,1,5.7-.69q8.36,0,13.09,4t4.73,11a14.49,14.49,0,0,1-2.89,9.32q-2.89,3.63-9.42,5.19a20,20,0,0,1,6.57,2.43,17,17,0,0,1,4.68,4.13,17.5,17.5,0,0,1,2.85,5.51,21.56,21.56,0,0,1,1,6.48,18.14,18.14,0,0,1-1.47,7.44,16.39,16.39,0,0,1-4.18,5.7,18.89,18.89,0,0,1-6.48,3.67,27.9,27.9,0,0,1-15.11.46,28.56,28.56,0,0,1-5.92-2.25,20.76,20.76,0,0,1-4.87-3.45,19.7,19.7,0,0,1-3.49-4.41l1.56-1.29a13.62,13.62,0,0,0,3.17,4.18,22.4,22.4,0,0,0,4.69,3.26,26,26,0,0,0,5.65,2.16,24.89,24.89,0,0,0,6.25.78q8.36,0,13.37-4.32t5-12.13q0-8.18-5.65-12.86t-15.94-4.68h-3.21v-1.84h3.21q9.28,0,14.06-3.54t4.78-10.15q0-6.34-4.23-9.65t-11.76-3.31a22.93,22.93,0,0,0-5.28.6,21.34,21.34,0,0,0-4.64,1.65,20.83,20.83,0,0,0-3.77,2.39,12.38,12.38,0,0,0-2.57,2.71Z" transform="translate(-2677.33 -1017.11)"/><path class="cls-1" d="M3317.36,1017.75V1083h-1.84v-32.43h-45.29V1083h-1.84v-65.22h1.84v31h45.29v-31Z" transform="translate(-2677.33 -1017.11)"/><path class="cls-1" d="M3387.55,1081.13V1083h-42.81v-65.22h42v1.84h-40.15v29.12h35.19v1.84h-35.19v30.59Z" transform="translate(-2677.33 -1017.11)"/><path class="cls-1" d="M3405.92,1049.9a34.48,34.48,0,0,1,2.07-11.67,33.58,33.58,0,0,1,6-10.43,30.16,30.16,0,0,1,9.65-7.53,28.68,28.68,0,0,1,13.09-2.89,26.29,26.29,0,0,1,14.79,4,24.74,24.74,0,0,1,9,10.24l-1.75.55a25.08,25.08,0,0,0-4.46-6.06,22.23,22.23,0,0,0-5.51-4,25.56,25.56,0,0,0-6.15-2.21,29.59,29.59,0,0,0-6.29-.69,26.39,26.39,0,0,0-12.13,2.71,28.22,28.22,0,0,0-9,7.12,30.92,30.92,0,0,0-5.56,10,34.58,34.58,0,0,0-1.88,11.16,32.17,32.17,0,0,0,2.25,11.94,33.24,33.24,0,0,0,6.15,10.06,29.76,29.76,0,0,0,9.14,6.94,25.27,25.27,0,0,0,11.3,2.57,27.92,27.92,0,0,0,6.61-.83,28.92,28.92,0,0,0,6.57-2.48,25.09,25.09,0,0,0,10.52-10.47l1.75.46a21.81,21.81,0,0,1-4.5,6.52,28.25,28.25,0,0,1-6.34,4.78,30.24,30.24,0,0,1-7.39,2.89,31.6,31.6,0,0,1-7.58,1,25.89,25.89,0,0,1-12.22-2.94,31.68,31.68,0,0,1-9.6-7.67,36.1,36.1,0,0,1-6.25-10.75A34.73,34.73,0,0,1,3405.92,1049.9Z" transform="translate(-2677.33 -1017.11)"/></svg>